<svg width="44" height="46" viewBox="0 0 44 46" fill="none" xmlns="http://www.w3.org/2000/svg">
<path d="M43.1639 33.6581L43.1732 33.6531H43.1551L32.5288 27.8951L21.8849 22.127L11.2405 27.8951L0.614274 33.6531H0.596191L0.605443 33.6581L0.596191 33.6632H0.614274L11.2405 39.4212L21.8849 45.1893L32.5288 39.4212L43.1551 33.6632H43.1732L43.1639 33.6581Z" fill="#C8E6C9"/>
<path d="M43.1639 11.5429L43.1732 11.5382H43.1551L32.5288 5.77983L21.8849 0.0117188L11.2405 5.77983L0.614274 11.5382H0.596191L0.605443 11.5429L0.596191 11.5479H0.614274L11.2405 17.3063L21.8849 23.0744L32.5288 17.3063L43.1551 11.5479H43.1732L43.1639 11.5429Z" fill="#4CAF4F"/>
<path d="M0.614258 11.0742V34.1268L21.8849 22.6007L0.614258 11.0742Z" fill="#A5D6A7"/>
<path d="M43.155 11.0742V34.1268L21.8848 22.6007L43.155 11.0742Z" fill="#A5D6A7"/>
</svg>
